{
  "asset": {
    "generator": "glTF-Transform v4.4.2",
    "version": "2.0"
  },
  "accessors": [
    {
      "type": "VEC3",
      "componentType": 5126,
      "count": 1084,
      "max": [
        2.6192500591278076,
        2.8834104537963867,
        2.5960004329681396
      ],
      "min": [
        -2.6192500591278076,
        -0.5719583630561829,
        -2.6032395362854004
      ],
      "bufferView": 0,
      "byteOffset": 0
    },
    {
      "type": "VEC3",
      "componentType": 5126,
      "count": 1084,
      "bufferView": 0,
      "byteOffset": 12
    },
    {
      "type": "VEC2",
      "componentType": 5126,
      "count": 1084,
      "bufferView": 0,
      "byteOffset": 24
    },
    {
      "type": "SCALAR",
      "componentType": 5123,
      "count": 2304,
      "bufferView": 1,
      "byteOffset": 0
    },
    {
      "type": "SCALAR",
      "componentType": 5123,
      "count": 186,
      "bufferView": 1,
      "byteOffset": 4608
    },
    {
      "type": "SCALAR",
      "componentType": 5123,
      "count": 8880,
      "bufferView": 1,
      "byteOffset": 4980
    },
    {
      "type": "SCALAR",
      "componentType": 5123,
      "count": 702,
      "bufferView": 1,
      "byteOffset": 22740
    },
    {
      "type": "VEC3",
      "componentType": 5126,
      "count": 71,
      "max": [
        0.8499592542648315,
        4.8593950271606445,
        0.8499592542648315
      ],
      "min": [
        -0.8499592542648315,
        2.8834099769592285,
        -0.8499592542648315
      ],
      "bufferView": 2,
      "byteOffset": 0
    },
    {
      "type": "VEC3",
      "componentType": 5126,
      "count": 71,
      "bufferView": 2,
      "byteOffset": 12
    },
    {
      "type": "VEC2",
      "componentType": 5126,
      "count": 71,
      "bufferView": 2,
      "byteOffset": 24
    },
    {
      "type": "VEC3",
      "componentType": 5126,
      "count": 3060,
      "max": [
        2.825260639190674,
        4.718158721923828,
        2.713549852371216
      ],
      "min": [
        -2.825260639190674,
        -0.3076852560043335,
        -2.713549852371216
      ],
      "bufferView": 3,
      "byteOffset": 0
    },
    {
      "type": "VEC3",
      "componentType": 5126,
      "count": 3060,
      "bufferView": 3,
      "byteOffset": 12
    },
    {
      "type": "VEC2",
      "componentType": 5126,
      "count": 3060,
      "bufferView": 3,
      "byteOffset": 24
    },
    {
      "type": "VEC3",
      "componentType": 5126,
      "count": 264,
      "max": [
        0.12427186965942383,
        6.788815498352051,
        0.12506477534770966
      ],
      "min": [
        -0.12427186965942383,
        4.511778354644775,
        -0.12319160252809525
      ],
      "bufferView": 4,
      "byteOffset": 0
    },
    {
      "type": "VEC3",
      "componentType": 5126,
      "count": 264,
      "bufferView": 4,
      "byteOffset": 12
    },
    {
      "type": "VEC2",
      "componentType": 5126,
      "count": 264,
      "bufferView": 4,
      "byteOffset": 24
    }
  ],
  "bufferViews": [
    {
      "buffer": 0,
      "byteOffset": 0,
      "byteLength": 34688,
      "byteStride": 32,
      "target": 34962
    },
    {
      "buffer": 0,
      "byteOffset": 34688,
      "byteLength": 24144,
      "target": 34963
    },
    {
      "buffer": 0,
      "byteOffset": 58832,
      "byteLength": 2272,
      "byteStride": 32,
      "target": 34962
    },
    {
      "buffer": 0,
      "byteOffset": 61104,
      "byteLength": 97920,
      "byteStride": 32,
      "target": 34962
    },
    {
      "buffer": 0,
      "byteOffset": 159024,
      "byteLength": 8448,
      "byteStride": 32,
      "target": 34962
    }
  ],
  "samplers": [
    {
      "magFilter": 9729,
      "minFilter": 9987,
      "wrapS": 10497,
      "wrapT": 10497
    }
  ],
  "textures": [
    {
      "source": 0,
      "sampler": 0
    },
    {
      "source": 1,
      "sampler": 0
    },
    {
      "source": 2,
      "sampler": 0
    },
    {
      "source": 3,
      "sampler": 0
    }
  ],
  "images": [
    {
      "name": "T_WoodTrim_BaseColor",
      "mimeType": "image/png",
      "uri": "T_WoodTrim_BaseColor.png"
    },
    {
      "name": "T_RockTrim_BaseColor",
      "mimeType": "image/png",
      "uri": "T_RockTrim_BaseColor.png"
    },
    {
      "name": "T_RoundTiles_BaseColor",
      "mimeType": "image/png",
      "uri": "T_RoundTiles_BaseColor.png"
    },
    {
      "name": "T_MetalOrnaments_BaseColor",
      "mimeType": "image/png",
      "uri": "T_MetalOrnaments_BaseColor.png"
    }
  ],
  "buffers": [
    {
      "uri": "Roof_Tower_RoundTiles.bin",
      "byteLength": 167472
    }
  ],
  "materials": [
    {
      "name": "MI_WoodTrim",
      "doubleSided": true,
      "pbrMetallicRoughness": {
        "metallicFactor": 0,
        "baseColorTexture": {
          "index": 0
        }
      }
    },
    {
      "name": "MI_RockTrim",
      "doubleSided": true,
      "pbrMetallicRoughness": {
        "metallicFactor": 0,
        "baseColorTexture": {
          "index": 1
        }
      }
    },
    {
      "name": "MI_RoundTiles",
      "doubleSided": true,
      "pbrMetallicRoughness": {
        "metallicFactor": 0,
        "baseColorTexture": {
          "index": 2
        }
      }
    },
    {
      "name": "MI_MetalOrnaments",
      "doubleSided": true,
      "pbrMetallicRoughness": {
        "metallicFactor": 0,
        "baseColorTexture": {
          "index": 3
        }
      }
    }
  ],
  "meshes": [
    {
      "name": "Cube.037",
      "primitives": [
        {
          "attributes": {
            "POSITION": 0,
            "NORMAL": 1,
            "TEXCOORD_0": 2
          },
          "mode": 4,
          "material": 0,
          "indices": 3
        },
        {
          "attributes": {
            "POSITION": 7,
            "NORMAL": 8,
            "TEXCOORD_0": 9
          },
          "mode": 4,
          "material": 1,
          "indices": 4
        },
        {
          "attributes": {
            "POSITION": 10,
            "NORMAL": 11,
            "TEXCOORD_0": 12
          },
          "mode": 4,
          "material": 2,
          "indices": 5
        },
        {
          "attributes": {
            "POSITION": 13,
            "NORMAL": 14,
            "TEXCOORD_0": 15
          },
          "mode": 4,
          "material": 3,
          "indices": 6
        }
      ]
    }
  ],
  "nodes": [
    {
      "name": "Roof_Tower_RoundTiles",
      "mesh": 0
    }
  ],
  "scenes": [
    {
      "name": "Scene",
      "nodes": [
        0
      ]
    }
  ],
  "scene": 0
}