{
  "asset": {
    "generator": "glTF-Transform v4.4.2",
    "version": "2.0"
  },
  "accessors": [
    {
      "type": "VEC4",
      "componentType": 5126,
      "count": 1800,
      "bufferView": 0,
      "byteOffset": 0
    },
    {
      "type": "VEC3",
      "componentType": 5126,
      "count": 1800,
      "max": [
        0.9913685917854309,
        1.3470909595489502,
        0.9907516837120056
      ],
      "min": [
        -0.9234761595726013,
        -0.234694704413414,
        -0.9743891954421997
      ],
      "bufferView": 0,
      "byteOffset": 16
    },
    {
      "type": "VEC3",
      "componentType": 5126,
      "count": 1800,
      "bufferView": 0,
      "byteOffset": 28
    },
    {
      "type": "VEC2",
      "componentType": 5126,
      "count": 1800,
      "bufferView": 0,
      "byteOffset": 40
    },
    {
      "type": "SCALAR",
      "componentType": 5123,
      "count": 2700,
      "bufferView": 1,
      "byteOffset": 0
    }
  ],
  "bufferViews": [
    {
      "buffer": 0,
      "byteOffset": 0,
      "byteLength": 86400,
      "byteStride": 48,
      "target": 34962
    },
    {
      "buffer": 0,
      "byteOffset": 86400,
      "byteLength": 5400,
      "target": 34963
    }
  ],
  "samplers": [
    {
      "magFilter": 9729,
      "minFilter": 9987,
      "wrapS": 10497,
      "wrapT": 10497
    }
  ],
  "textures": [
    {
      "source": 0,
      "sampler": 0
    }
  ],
  "images": [
    {
      "name": "Leaves_TwistedTree_C",
      "mimeType": "image/png",
      "uri": "Leaves_TwistedTree_C.png"
    }
  ],
  "buffers": [
    {
      "uri": "Bush_Common.bin",
      "byteLength": 91800
    }
  ],
  "materials": [
    {
      "name": "Leaves_TwistedTree",
      "alphaMode": "MASK",
      "alphaCutoff": 0.20000000298023224,
      "doubleSided": true,
      "pbrMetallicRoughness": {
        "metallicFactor": 0,
        "baseColorTexture": {
          "index": 0
        }
      }
    }
  ],
  "meshes": [
    {
      "name": "tree.008",
      "primitives": [
        {
          "attributes": {
            "COLOR_0": 0,
            "POSITION": 1,
            "NORMAL": 2,
            "TEXCOORD_0": 3
          },
          "mode": 4,
          "material": 0,
          "indices": 4
        }
      ]
    }
  ],
  "nodes": [
    {
      "name": "Bush_Common",
      "mesh": 0
    }
  ],
  "scenes": [
    {
      "name": "Scene",
      "nodes": [
        0
      ]
    }
  ],
  "scene": 0
}