{
  "asset": {
    "generator": "glTF-Transform v4.4.2",
    "version": "2.0"
  },
  "accessors": [
    {
      "type": "VEC4",
      "componentType": 5126,
      "count": 2149,
      "bufferView": 0,
      "byteOffset": 0
    },
    {
      "type": "VEC3",
      "componentType": 5126,
      "count": 2149,
      "max": [
        1.0429332256317139,
        7.97797966003418,
        1.102728247642517
      ],
      "min": [
        -0.848488450050354,
        -0.24277201294898987,
        -0.8173294067382812
      ],
      "bufferView": 0,
      "byteOffset": 16
    },
    {
      "type": "VEC3",
      "componentType": 5126,
      "count": 2149,
      "bufferView": 0,
      "byteOffset": 28
    },
    {
      "type": "VEC2",
      "componentType": 5126,
      "count": 2149,
      "bufferView": 0,
      "byteOffset": 40
    },
    {
      "type": "SCALAR",
      "componentType": 5123,
      "count": 5115,
      "bufferView": 1,
      "byteOffset": 0
    },
    {
      "type": "SCALAR",
      "componentType": 5123,
      "count": 5400,
      "bufferView": 1,
      "byteOffset": 10232
    },
    {
      "type": "VEC4",
      "componentType": 5126,
      "count": 3600,
      "bufferView": 2,
      "byteOffset": 0
    },
    {
      "type": "VEC3",
      "componentType": 5126,
      "count": 3600,
      "max": [
        2.076380968093872,
        9.182417869567871,
        2.1801114082336426
      ],
      "min": [
        -1.9864652156829834,
        2.5763165950775146,
        -2.0609655380249023
      ],
      "bufferView": 2,
      "byteOffset": 16
    },
    {
      "type": "VEC3",
      "componentType": 5126,
      "count": 3600,
      "bufferView": 2,
      "byteOffset": 28
    },
    {
      "type": "VEC2",
      "componentType": 5126,
      "count": 3600,
      "bufferView": 2,
      "byteOffset": 40
    }
  ],
  "bufferViews": [
    {
      "buffer": 0,
      "byteOffset": 0,
      "byteLength": 103152,
      "byteStride": 48,
      "target": 34962
    },
    {
      "buffer": 0,
      "byteOffset": 103152,
      "byteLength": 21032,
      "target": 34963
    },
    {
      "buffer": 0,
      "byteOffset": 124184,
      "byteLength": 172800,
      "byteStride": 48,
      "target": 34962
    }
  ],
  "samplers": [
    {
      "magFilter": 9729,
      "minFilter": 9987,
      "wrapS": 10497,
      "wrapT": 10497
    }
  ],
  "textures": [
    {
      "source": 0,
      "sampler": 0
    },
    {
      "source": 1,
      "sampler": 0
    }
  ],
  "images": [
    {
      "name": "Bark_NormalTree",
      "mimeType": "image/png",
      "uri": "Bark_NormalTree.png"
    },
    {
      "name": "Leaves_NormalTree_C",
      "mimeType": "image/png",
      "uri": "Leaves_NormalTree_C.png"
    }
  ],
  "buffers": [
    {
      "uri": "CommonTree_3.bin",
      "byteLength": 296984
    }
  ],
  "materials": [
    {
      "name": "Bark_NormalTree",
      "alphaMode": "MASK",
      "alphaCutoff": 0.20000000298023224,
      "doubleSided": true,
      "pbrMetallicRoughness": {
        "metallicFactor": 0,
        "baseColorTexture": {
          "index": 0
        }
      }
    },
    {
      "name": "Leaves_NormalTree",
      "alphaMode": "MASK",
      "alphaCutoff": 0.20000000298023224,
      "doubleSided": true,
      "pbrMetallicRoughness": {
        "metallicFactor": 0,
        "baseColorTexture": {
          "index": 1
        }
      }
    }
  ],
  "meshes": [
    {
      "name": "tree.025",
      "primitives": [
        {
          "attributes": {
            "COLOR_0": 0,
            "POSITION": 1,
            "NORMAL": 2,
            "TEXCOORD_0": 3
          },
          "mode": 4,
          "material": 0,
          "indices": 4
        },
        {
          "attributes": {
            "COLOR_0": 6,
            "POSITION": 7,
            "NORMAL": 8,
            "TEXCOORD_0": 9
          },
          "mode": 4,
          "material": 1,
          "indices": 5
        }
      ]
    }
  ],
  "nodes": [
    {
      "name": "CommonTree_3",
      "mesh": 0
    }
  ],
  "scenes": [
    {
      "name": "Scene",
      "nodes": [
        0
      ]
    }
  ],
  "scene": 0
}