{
  "asset": {
    "generator": "glTF-Transform v4.4.2",
    "version": "2.0"
  },
  "accessors": [
    {
      "type": "VEC4",
      "componentType": 5126,
      "count": 4076,
      "bufferView": 0,
      "byteOffset": 0
    },
    {
      "type": "VEC3",
      "componentType": 5126,
      "count": 4076,
      "max": [
        1.3389160633087158,
        6.822727203369141,
        1.3303884267807007
      ],
      "min": [
        -1.0975136756896973,
        -0.23508860170841217,
        -1.8778250217437744
      ],
      "bufferView": 0,
      "byteOffset": 16
    },
    {
      "type": "VEC3",
      "componentType": 5126,
      "count": 4076,
      "bufferView": 0,
      "byteOffset": 28
    },
    {
      "type": "VEC2",
      "componentType": 5126,
      "count": 4076,
      "bufferView": 0,
      "byteOffset": 40
    },
    {
      "type": "SCALAR",
      "componentType": 5123,
      "count": 9531,
      "bufferView": 1,
      "byteOffset": 0
    },
    {
      "type": "SCALAR",
      "componentType": 5123,
      "count": 2310,
      "bufferView": 1,
      "byteOffset": 19064
    },
    {
      "type": "VEC4",
      "componentType": 5126,
      "count": 1170,
      "bufferView": 2,
      "byteOffset": 0
    },
    {
      "type": "VEC3",
      "componentType": 5126,
      "count": 1170,
      "max": [
        2.4958789348602295,
        7.081829071044922,
        2.0614705085754395
      ],
      "min": [
        -2.448819160461426,
        2.158754587173462,
        -2.4769327640533447
      ],
      "bufferView": 2,
      "byteOffset": 16
    },
    {
      "type": "VEC3",
      "componentType": 5126,
      "count": 1170,
      "bufferView": 2,
      "byteOffset": 28
    },
    {
      "type": "VEC2",
      "componentType": 5126,
      "count": 1170,
      "bufferView": 2,
      "byteOffset": 40
    }
  ],
  "bufferViews": [
    {
      "buffer": 0,
      "byteOffset": 0,
      "byteLength": 195648,
      "byteStride": 48,
      "target": 34962
    },
    {
      "buffer": 0,
      "byteOffset": 195648,
      "byteLength": 23684,
      "target": 34963
    },
    {
      "buffer": 0,
      "byteOffset": 219332,
      "byteLength": 56160,
      "byteStride": 48,
      "target": 34962
    }
  ],
  "samplers": [
    {
      "magFilter": 9729,
      "minFilter": 9987,
      "wrapS": 10497,
      "wrapT": 10497
    }
  ],
  "textures": [
    {
      "source": 0,
      "sampler": 0
    },
    {
      "source": 1,
      "sampler": 0
    }
  ],
  "images": [
    {
      "name": "Bark_NormalTree",
      "mimeType": "image/png",
      "uri": "Bark_NormalTree.png"
    },
    {
      "name": "Leaf_Pine_C",
      "mimeType": "image/png",
      "uri": "Leaf_Pine_C.png"
    }
  ],
  "buffers": [
    {
      "uri": "Pine_1.bin",
      "byteLength": 275492
    }
  ],
  "materials": [
    {
      "name": "Bark_NormalTree",
      "alphaMode": "MASK",
      "alphaCutoff": 0.20000000298023224,
      "doubleSided": true,
      "pbrMetallicRoughness": {
        "metallicFactor": 0,
        "baseColorTexture": {
          "index": 0
        }
      }
    },
    {
      "name": "Leaves_Pine",
      "alphaMode": "MASK",
      "alphaCutoff": 0.20000000298023224,
      "doubleSided": true,
      "pbrMetallicRoughness": {
        "metallicFactor": 0,
        "baseColorTexture": {
          "index": 1
        }
      }
    }
  ],
  "meshes": [
    {
      "name": "tree.028",
      "primitives": [
        {
          "attributes": {
            "COLOR_0": 0,
            "POSITION": 1,
            "NORMAL": 2,
            "TEXCOORD_0": 3
          },
          "mode": 4,
          "material": 0,
          "indices": 4
        },
        {
          "attributes": {
            "COLOR_0": 6,
            "POSITION": 7,
            "NORMAL": 8,
            "TEXCOORD_0": 9
          },
          "mode": 4,
          "material": 1,
          "indices": 5
        }
      ]
    }
  ],
  "nodes": [
    {
      "name": "Pine_1",
      "mesh": 0
    }
  ],
  "scenes": [
    {
      "name": "Scene",
      "nodes": [
        0
      ]
    }
  ],
  "scene": 0
}